<?xml version="1.0" encoding="UTF-8" standalone="no"?>
<!-- Created with matplotlib (http://matplotlib.org/) -->

<svg
   xmlns:dc="http://purl.org/dc/elements/1.1/"
   xmlns:cc="http://creativecommons.org/ns#"
   xmlns:rdf="http://www.w3.org/1999/02/22-rdf-syntax-ns#"
   xmlns:svg="http://www.w3.org/2000/svg"
   xmlns="http://www.w3.org/2000/svg"
   xmlns:sodipodi="http://sodipodi.sourceforge.net/DTD/sodipodi-0.dtd"
   xmlns:inkscape="http://www.inkscape.org/namespaces/inkscape"
   height="228.24904pt"
   version="1.1"
   viewBox="0 0 182.99922 228.24904"
   width="182.99922pt"
   id="svg2"
   inkscape:version="0.91 r13725"
   sodipodi:docname="favicon2.svg">
  <metadata
     id="metadata56">
    <rdf:RDF>
      <cc:Work
         rdf:about="">
        <dc:format>image/svg+xml</dc:format>
        <dc:type
           rdf:resource="http://purl.org/dc/dcmitype/StillImage" />
        <dc:title></dc:title>
      </cc:Work>
    </rdf:RDF>
  </metadata>
  <sodipodi:namedview
     pagecolor="#ffffff"
     bordercolor="#666666"
     borderopacity="1"
     objecttolerance="10"
     gridtolerance="10"
     guidetolerance="10"
     inkscape:pageopacity="0"
     inkscape:pageshadow="2"
     inkscape:window-width="735"
     inkscape:window-height="480"
     id="namedview54"
     showgrid="false"
     fit-margin-top="0"
     fit-margin-left="0"
     fit-margin-right="0"
     fit-margin-bottom="0"
     inkscape:zoom="0.65555556"
     inkscape:cx="107.58077"
     inkscape:cy="133.55564"
     inkscape:window-x="65"
     inkscape:window-y="24"
     inkscape:window-maximized="0"
     inkscape:current-layer="figure_1" />
  <defs
     id="defs4"
     style="stroke-linecap:butt;stroke-linejoin:round">
    <style
       type="text/css"
       id="style6">
*{stroke-linecap:butt;stroke-linejoin:round;}
  </style>
  </defs>
  <g
     id="figure_1"
     style="stroke-linecap:butt;stroke-linejoin:round"
     transform="translate(-57.935387,-22.595484)">
    <g
       id="axes_1"
       style="stroke-linecap:butt;stroke-linejoin:round">
      <g
         id="patch_2"
         style="stroke-linecap:butt;stroke-linejoin:round">
        <path
           clip-path="url(#pf3f2aeb979)"
           d="m 110.97267,249.84452 31.67486,0 q 6.78747,0 6.78747,-6.78748 l 0,-31.67486 q 0,-6.78747 -6.78747,-6.78747 l -31.67486,0 q -6.78748,0 -6.78748,6.78747 l 0,31.67486 q 0,6.78748 6.78748,6.78748 z"
           style="fill:#333333;stroke:#000000;stroke-width:2;stroke-linecap:butt;stroke-linejoin:miter"
           id="path14"
           inkscape:connector-curvature="0" />
      </g>
      <g
         id="patch_3"
         style="stroke-linecap:butt;stroke-linejoin:round">
        <path
           clip-path="url(#pf3f2aeb979)"
           d="m 110.97267,204.59471 31.67486,0 q 6.78747,0 6.78747,-6.78747 l 0,-31.67487 q 0,-6.78747 -6.78747,-6.78747 l -31.67486,0 q -6.78748,0 -6.78748,6.78747 l 0,31.67487 q 0,6.78747 6.78748,6.78747 z"
           style="fill:#333333;stroke:#000000;stroke-width:2;stroke-linecap:butt;stroke-linejoin:miter"
           id="path17"
           inkscape:connector-curvature="0" />
      </g>
      <g
         id="patch_4"
         style="stroke-linecap:butt;stroke-linejoin:round">
        <path
           clip-path="url(#pf3f2aeb979)"
           d="m 110.97267,159.3449 31.67486,0 q 6.78747,0 6.78747,-6.78747 l 0,-31.67486 q 0,-6.78747 -6.78747,-6.78747 l -31.67486,0 q -6.78748,0 -6.78748,6.78747 l 0,31.67486 q 0,6.78747 6.78748,6.78747 z"
           style="fill:#333333;stroke:#000000;stroke-width:2;stroke-linecap:butt;stroke-linejoin:miter"
           id="path20"
           inkscape:connector-curvature="0" />
      </g>
      <g
         id="patch_5"
         style="stroke-linecap:butt;stroke-linejoin:round">
        <path
           clip-path="url(#pf3f2aeb979)"
           d="m 110.97267,114.0951 31.67486,0 q 6.78747,0 6.78747,-6.78747 l 0,-31.674869 q 0,-6.787471 -6.78747,-6.787471 l -31.67486,0 q -6.78748,0 -6.78748,6.787471 l 0,31.674869 q 0,6.78747 6.78748,6.78747 z"
           style="fill:#333333;stroke:#000000;stroke-width:2;stroke-linecap:butt;stroke-linejoin:miter"
           id="path23"
           inkscape:connector-curvature="0" />
      </g>
      <g
         id="patch_6"
         style="stroke-linecap:butt;stroke-linejoin:round">
        <path
           clip-path="url(#pf3f2aeb979)"
           d="m 110.97267,68.84529 31.67486,0 q 6.78747,0 6.78747,-6.787471 l 0,-31.674864 q 0,-6.787471 -6.78747,-6.787471 l -31.67486,0 q -6.78748,0 -6.78748,6.787471 l 0,31.674864 q 0,6.787471 6.78748,6.787471 z"
           style="fill:#333333;stroke:#000000;stroke-width:2;stroke-linecap:butt;stroke-linejoin:miter"
           id="path26"
           inkscape:connector-curvature="0" />
      </g>
      <g
         id="patch_7"
         style="stroke-linecap:butt;stroke-linejoin:round">
        <path
           clip-path="url(#pf3f2aeb979)"
           d="m 65.722858,114.0951 31.674865,0 q 6.787467,0 6.787467,-6.78747 l 0,-31.674869 q 0,-6.787471 -6.787467,-6.787471 l -31.674865,0 q -6.787471,0 -6.787471,6.787471 l 0,31.674869 q 0,6.78747 6.787471,6.78747 z"
           style="fill:#ff9933;stroke:#000000;stroke-width:2;stroke-linecap:butt;stroke-linejoin:miter"
           id="path29"
           inkscape:connector-curvature="0" />
      </g>
      <g
         id="patch_8"
         style="stroke-linecap:butt;stroke-linejoin:round">
        <path
           clip-path="url(#pf3f2aeb979)"
           d="m 110.97267,114.0951 31.67486,0 q 6.78747,0 6.78747,-6.78747 l 0,-31.674869 q 0,-6.787471 -6.78747,-6.787471 l -31.67486,0 q -6.78748,0 -6.78748,6.787471 l 0,31.674869 q 0,6.78747 6.78748,6.78747 z"
           style="fill:#ff9933;stroke:#000000;stroke-width:2;stroke-linecap:butt;stroke-linejoin:miter"
           id="path32"
           inkscape:connector-curvature="0" />
      </g>
      <g
         id="patch_9"
         style="stroke-linecap:butt;stroke-linejoin:round">
        <path
           clip-path="url(#pf3f2aeb979)"
           d="m 156.22247,114.0951 31.67486,0 q 6.78748,0 6.78748,-6.78747 l 0,-31.674869 q 0,-6.787471 -6.78748,-6.787471 l -31.67486,0 q -6.78747,0 -6.78747,6.787471 l 0,31.674869 q 0,6.78747 6.78747,6.78747 z"
           style="fill:#ff9933;stroke:#000000;stroke-width:2;stroke-linecap:butt;stroke-linejoin:miter"
           id="path35"
           inkscape:connector-curvature="0" />
      </g>
      <g
         id="patch_10"
         style="stroke-linecap:butt;stroke-linejoin:round">
        <path
           clip-path="url(#pf3f2aeb979)"
           d="m 156.22247,159.3449 31.67486,0 q 6.78748,0 6.78748,-6.78747 l 0,-31.67486 q 0,-6.78747 -6.78748,-6.78747 l -31.67486,0 q -6.78747,0 -6.78747,6.78747 l 0,31.67486 q 0,6.78747 6.78747,6.78747 z"
           style="fill:#333333;stroke:#000000;stroke-width:2;stroke-linecap:butt;stroke-linejoin:miter"
           id="path38"
           inkscape:connector-curvature="0" />
      </g>
      <g
         id="patch_11"
         style="stroke-linecap:butt;stroke-linejoin:round">
        <path
           clip-path="url(#pf3f2aeb979)"
           d="m 201.47228,159.3449 31.67486,0 q 6.78747,0 6.78747,-6.78747 l 0,-31.67486 q 0,-6.78747 -6.78747,-6.78747 l -31.67486,0 q -6.78747,0 -6.78747,6.78747 l 0,31.67486 q 0,6.78747 6.78747,6.78747 z"
           style="fill:#333333;stroke:#000000;stroke-width:2;stroke-linecap:butt;stroke-linejoin:miter"
           id="path41"
           inkscape:connector-curvature="0" />
      </g>
      <g
         id="patch_12"
         style="stroke-linecap:butt;stroke-linejoin:round">
        <path
           clip-path="url(#pf3f2aeb979)"
           d="m 201.47228,204.59471 31.67486,0 q 6.78747,0 6.78747,-6.78747 l 0,-31.67487 q 0,-6.78747 -6.78747,-6.78747 l -31.67486,0 q -6.78747,0 -6.78747,6.78747 l 0,31.67487 q 0,6.78747 6.78747,6.78747 z"
           style="fill:#333333;stroke:#000000;stroke-width:2;stroke-linecap:butt;stroke-linejoin:miter"
           id="path44"
           inkscape:connector-curvature="0" />
      </g>
      <g
         id="patch_13"
         style="stroke-linecap:butt;stroke-linejoin:round">
        <path
           clip-path="url(#pf3f2aeb979)"
           d="m 201.47228,249.84452 31.67486,0 q 6.78747,0 6.78747,-6.78748 l 0,-31.67486 q 0,-6.78747 -6.78747,-6.78747 l -31.67486,0 q -6.78747,0 -6.78747,6.78747 l 0,31.67486 q 0,6.78748 6.78747,6.78748 z"
           style="fill:#333333;stroke:#000000;stroke-width:2;stroke-linecap:butt;stroke-linejoin:miter"
           id="path47"
           inkscape:connector-curvature="0" />
      </g>
    </g>
  </g>
  <defs
     id="defs49">
    <clipPath
       id="pf3f2aeb979"
       style="stroke-linecap:butt;stroke-linejoin:round">
      <rect
         height="246.8"
         width="250.49001"
         x="24.190001"
         y="13.32"
         id="rect52"
         style="stroke-linecap:butt;stroke-linejoin:round" />
    </clipPath>
  </defs>
</svg>
